<svg width="24" height="21" viewBox="0 0 24 21" fill="none" xmlns="http://www.w3.org/2000/svg">
<path fill-rule="evenodd" clip-rule="evenodd" d="M8 0.599998H16L18 3.59975H21C22.6575 3.59975 24 4.9735 24 6.631V17.6155C24 19.2727 22.6575 20.6 21 20.6H3C1.3425 20.6 0 19.2575 0 17.6V6.6155C0 4.9585 1.3425 3.6 3 3.6H6L8 0.599998ZM16.3535 4.7095L14.9647 2.6H9.07025L7.664 4.7095L7.07025 5.6H6H3C2.4485 5.6 2 6.05575 2 6.6155V17.6002C2 18.1517 2.4485 18.6002 3 18.6002H21C21.5607 18.6002 22 18.1682 22 17.6157V6.63125C22 6.07225 21.542 5.6 21 5.6H18H16.9297L16.3535 4.7095Z" fill="black"/>
<path fill-rule="evenodd" clip-rule="evenodd" d="M7 11.6C7 8.83875 9.2385 6.6 12 6.6C14.7615 6.6 17 8.8385 17 11.6C17 14.3615 14.7615 16.6 12 16.6C9.23875 16.6 7 14.3612 7 11.6ZM15 11.6C15 9.94575 13.6542 8.6 12 8.6C10.3455 8.6 9 9.94575 9 11.6C9 13.2542 10.3457 14.6 12 14.6C13.654 14.6 15 13.2542 15 11.6Z" fill="black"/>
</svg>
